<svg xmlns="http://www.w3.org/2000/svg" viewBox="0 0 1440 900" width="1440" height="900" role="presentation" aria-hidden="true"><defs>
<linearGradient id="g-quiz-flow" x1="0" y1="0" x2="1" y2="1">
<stop offset="0" stop-color="#2E251C"/>
<stop offset=".55" stop-color="#221C16"/>
<stop offset="1" stop-color="#14110E"/>
</linearGradient>
<radialGradient id="warm-quiz-flow" cx=".5" cy=".5" r=".5">
<stop offset="0" stop-color="#E8B98C" stop-opacity=".55"/>
<stop offset="1" stop-color="#E8B98C" stop-opacity="0"/>
</radialGradient>
<radialGradient id="cool-quiz-flow" cx=".5" cy=".5" r=".5">
<stop offset="0" stop-color="#7FA3C4" stop-opacity=".38"/>
<stop offset="1" stop-color="#7FA3C4" stop-opacity="0"/>
</radialGradient>
<linearGradient id="fade-quiz-flow" x1="0" y1="0" x2="0" y2="1">
<stop offset="0" stop-color="#E8B98C" stop-opacity=".5"/>
<stop offset="1" stop-color="#E8B98C" stop-opacity="0"/>
</linearGradient>
<pattern id="grid-quiz-flow" width="64" height="64" patternUnits="userSpaceOnUse">
<path d="M64 0H0V64" fill="none" stroke="#F5EFE8" stroke-opacity=".05" stroke-width="1"/>
</pattern>
<radialGradient id="vig-quiz-flow" cx=".5" cy=".45" r=".75">
<stop offset=".55" stop-color="#14110E" stop-opacity="0"/>
<stop offset="1" stop-color="#14110E" stop-opacity=".42"/>
</radialGradient>
</defs><rect width="1440" height="900" fill="url(#g-quiz-flow)"/><ellipse cx="861.23" cy="163.02" rx="568.85" ry="443.7" fill="url(#warm-quiz-flow)"/><ellipse cx="1141.22" cy="366.57" rx="551.33" ry="430.04" fill="url(#cool-quiz-flow)"/><ellipse cx="741.58" cy="321.75" rx="467.52" ry="364.67" fill="url(#warm-quiz-flow)"/><rect width="1440" height="900" fill="url(#grid-quiz-flow)"/><path d="M172.8 252 C604.8 252 662.4 450 1238.4 450" fill="none" stroke="#E8B98C" stroke-opacity=".7" stroke-width="26" stroke-linecap="round"/>
<path d="M172.8 648 C604.8 648 662.4 450 1238.4 450" fill="none" stroke="#3F5B75" stroke-opacity=".7" stroke-width="18" stroke-linecap="round"/>
<circle cx="172.8" cy="252" r="20" fill="#E8B98C"/>
<circle cx="172.8" cy="648" r="16" fill="#7FA3C4"/>
<rect x="1216.4" y="270" width="44" height="360" rx="22" fill="#F5EFE8" fill-opacity=".85"/><rect width="1440" height="900" fill="url(#vig-quiz-flow)"/></svg>
