<svg xmlns="http://www.w3.org/2000/svg" viewBox="0 0 1440 900" width="1440" height="900" role="presentation" aria-hidden="true"><defs>
<linearGradient id="g-track-forex" x1="0" y1="0" x2="1" y2="1">
<stop offset="0" stop-color="#2E251C"/>
<stop offset=".55" stop-color="#221C16"/>
<stop offset="1" stop-color="#14110E"/>
</linearGradient>
<radialGradient id="warm-track-forex" cx=".5" cy=".5" r=".5">
<stop offset="0" stop-color="#E8B98C" stop-opacity=".55"/>
<stop offset="1" stop-color="#E8B98C" stop-opacity="0"/>
</radialGradient>
<radialGradient id="cool-track-forex" cx=".5" cy=".5" r=".5">
<stop offset="0" stop-color="#7FA3C4" stop-opacity=".38"/>
<stop offset="1" stop-color="#7FA3C4" stop-opacity="0"/>
</radialGradient>
<linearGradient id="fade-track-forex" x1="0" y1="0" x2="0" y2="1">
<stop offset="0" stop-color="#E8B98C" stop-opacity=".5"/>
<stop offset="1" stop-color="#E8B98C" stop-opacity="0"/>
</linearGradient>
<pattern id="grid-track-forex" width="64" height="64" patternUnits="userSpaceOnUse">
<path d="M64 0H0V64" fill="none" stroke="#F5EFE8" stroke-opacity=".05" stroke-width="1"/>
</pattern>
<radialGradient id="vig-track-forex" cx=".5" cy=".45" r=".75">
<stop offset=".55" stop-color="#14110E" stop-opacity="0"/>
<stop offset="1" stop-color="#14110E" stop-opacity=".42"/>
</radialGradient>
</defs><rect width="1440" height="900" fill="url(#g-track-forex)"/><ellipse cx="998.23" cy="718.32" rx="425.73" ry="332.07" fill="url(#warm-track-forex)"/><ellipse cx="576.68" cy="233.68" rx="616.62" ry="480.96" fill="url(#cool-track-forex)"/><ellipse cx="944.94" cy="646.75" rx="390.37" ry="304.49" fill="url(#warm-track-forex)"/><rect width="1440" height="900" fill="url(#grid-track-forex)"/><rect x="188.12" y="402.7" width="24.08" height="71.06" rx="12.04" fill="#E8B98C" fill-opacity=".35"/><rect x="183.74" y="418.18" width="32.83" height="31.82" rx="4" fill="#E8B98C" fill-opacity=".92"/><rect x="242.84" y="352.31" width="24.08" height="68.79" rx="12.04" fill="#E8B98C" fill-opacity=".35"/><rect x="238.46" y="369.17" width="32.83" height="49.01" rx="4" fill="#E8B98C" fill-opacity=".92"/><rect x="297.56" y="328.38" width="24.08" height="66.33" rx="12.04" fill="#E8B98C" fill-opacity=".35"/><rect x="293.18" y="333.49" width="32.83" height="35.68" rx="4" fill="#E8B98C" fill-opacity=".92"/><rect x="352.28" y="304.18" width="24.08" height="74.92" rx="12.04" fill="#3F5B75" fill-opacity=".35"/><rect x="347.9" y="333.49" width="32.83" height="24.15" rx="4" fill="#3F5B75" fill-opacity=".6"/><rect x="407" y="356.76" width="24.08" height="59.93" rx="12.04" fill="#3F5B75" fill-opacity=".35"/><rect x="402.62" y="357.64" width="32.83" height="36.47" rx="4" fill="#3F5B75" fill-opacity=".6"/><rect x="461.72" y="374.84" width="24.08" height="103.23" rx="12.04" fill="#3F5B75" fill-opacity=".35"/><rect x="457.34" y="394.11" width="32.83" height="62.99" rx="4" fill="#3F5B75" fill-opacity=".6"/><rect x="516.44" y="442.79" width="24.08" height="53.06" rx="12.04" fill="#E8B98C" fill-opacity=".35"/><rect x="512.06" y="444.77" width="32.83" height="16" rx="4" fill="#E8B98C" fill-opacity=".92"/><rect x="571.16" y="412.37" width="24.08" height="53.33" rx="12.04" fill="#E8B98C" fill-opacity=".35"/><rect x="566.78" y="438.78" width="32.83" height="16" rx="4" fill="#E8B98C" fill-opacity=".92"/><rect x="625.88" y="430.72" width="24.08" height="81.73" rx="12.04" fill="#3F5B75" fill-opacity=".35"/><rect x="621.5" y="438.78" width="32.83" height="44.96" rx="4" fill="#3F5B75" fill-opacity=".6"/><rect x="680.6" y="472.6" width="24.08" height="40" rx="12.04" fill="#3F5B75" fill-opacity=".35"/><rect x="676.22" y="483.74" width="32.83" height="16" rx="4" fill="#3F5B75" fill-opacity=".6"/><rect x="735.32" y="466.21" width="24.08" height="85.91" rx="12.04" fill="#3F5B75" fill-opacity=".35"/><rect x="730.94" y="496.52" width="32.83" height="52.36" rx="4" fill="#3F5B75" fill-opacity=".6"/><rect x="790.04" y="543.22" width="24.08" height="49.09" rx="12.04" fill="#3F5B75" fill-opacity=".35"/><rect x="785.66" y="548.88" width="32.83" height="24.74" rx="4" fill="#3F5B75" fill-opacity=".6"/><rect x="844.76" y="557.92" width="24.08" height="100.62" rx="12.04" fill="#3F5B75" fill-opacity=".35"/><rect x="840.38" y="573.62" width="32.83" height="51.18" rx="4" fill="#3F5B75" fill-opacity=".6"/><rect x="899.48" y="542.94" width="24.08" height="106.57" rx="12.04" fill="#E8B98C" fill-opacity=".35"/><rect x="895.1" y="577.39" width="32.83" height="47.41" rx="4" fill="#E8B98C" fill-opacity=".92"/><rect x="954.2" y="573.95" width="24.08" height="70.8" rx="12.04" fill="#3F5B75" fill-opacity=".35"/><rect x="949.82" y="577.39" width="32.83" height="41.74" rx="4" fill="#3F5B75" fill-opacity=".6"/><rect x="1008.92" y="604.97" width="24.08" height="39.37" rx="12.04" fill="#E8B98C" fill-opacity=".35"/><rect x="1004.54" y="616.39" width="32.83" height="16" rx="4" fill="#E8B98C" fill-opacity=".92"/><rect x="1063.64" y="603.55" width="24.08" height="97.16" rx="12.04" fill="#3F5B75" fill-opacity=".35"/><rect x="1059.26" y="616.39" width="32.83" height="41.49" rx="4" fill="#3F5B75" fill-opacity=".6"/><rect x="1118.36" y="598.72" width="24.08" height="88.19" rx="12.04" fill="#E8B98C" fill-opacity=".35"/><rect x="1113.98" y="638.29" width="32.83" height="19.58" rx="4" fill="#E8B98C" fill-opacity=".92"/><rect x="1173.08" y="595.3" width="24.08" height="107.06" rx="12.04" fill="#3F5B75" fill-opacity=".35"/><rect x="1168.7" y="638.29" width="32.83" height="29.21" rx="4" fill="#3F5B75" fill-opacity=".6"/><rect x="1227.8" y="626.54" width="24.08" height="109.82" rx="12.04" fill="#3F5B75" fill-opacity=".35"/><rect x="1223.42" y="667.51" width="32.83" height="27.23" rx="4" fill="#3F5B75" fill-opacity=".6"/><polyline points="200.16,418.18 254.88,369.17 309.6,333.49 364.32,357.64 419.04,394.11 473.76,457.1 528.48,444.77 583.2,438.78 637.92,483.74 692.64,496.52 747.36,548.88 802.08,573.62 856.8,624.8 911.52,577.39 966.24,619.13 1020.96,616.39 1075.68,657.88 1130.4,638.29 1185.12,667.51 1239.84,694.74" fill="none" stroke="#F5EFE8" stroke-opacity=".4" stroke-width="4" stroke-linecap="round" stroke-linejoin="round"/><rect width="1440" height="900" fill="url(#vig-track-forex)"/></svg>
